<svg xmlns="http://www.w3.org/2000/svg" version="1.1" xmlns:xlink="http://www.w3.org/1999/xlink" xmlns:svgjs="http://svgjs.com/svgjs" width="1440" height="560" preserveAspectRatio="none" viewBox="0 0 1440 560"><g mask="url(&quot;#SvgjsMask1020&quot;)" fill="none"><rect width="1440" height="560" x="0" y="0" fill="rgba(0, 0, 0, 1)"></rect><path d="M116.67 0C131.26 2.08 131.91 7.12 140 20C175.88 77.12 162.62 88.79 204.62 140C232.62 174.13 237.7 182.9 280 190.69C345.39 202.73 352.29 169.36 420 179.67C492.29 190.68 505.62 245.09 560 233.33C597.34 225.26 603.45 186.51 603.45 140C603.45 94.85 596.23 55.53 560 50C504.5 41.53 480.87 124.56 420 112C359.68 99.56 317.63 33.44 317.63 0C317.63 -22.56 368.82 0 420 0C490 0 490 0 560 0C630 0 630 0 700 0C732.76 0 734.63 -8.05 765.53 0C804.63 10.18 800.58 34.8 840 36.46C907.82 39.32 912.66 26.08 980 9.03C984.66 7.85 979.26 0.31 984 0C1049.26 -4.21 1052 0 1120 0C1190 0 1190 0 1260 0C1298.89 0 1319.57 -24.74 1337.78 0C1371.08 45.26 1340.22 75.39 1363.02 140C1371.33 163.54 1381.51 176.3 1400 176.3C1418.49 176.3 1429.97 163.71 1436.98 140C1456.02 75.56 1420.38 43.1 1452.09 0C1471.89 -26.9 1523.05 -27 1540 0C1567 43 1540 70 1540 140C1540 210 1540 210 1540 280C1540 350 1540 350 1540 420C1540 490 1575 525 1540 560C1505 595 1470 560 1400 560C1393 560 1391.8 563.73 1386 560C1321.8 518.73 1304.81 470 1260 470C1233.52 470 1273.22 540.84 1243.42 560C1203.22 585.84 1181.71 560 1120 560C1065.47 560 1028.72 590.34 1010.93 560C987.68 520.34 1048.33 479.93 1037.93 420C1032.87 390.84 1010.64 381.82 980 381.82C937.47 381.82 897.45 385.39 891.58 420C882.34 474.48 964.73 519.4 949.77 560C938.94 589.4 894.88 560 840 560C785.12 560 743.72 589.86 730.23 560C712.1 519.86 786.25 477.22 776.77 420C771.13 385.97 735.79 377.5 700 377.5C674.52 377.5 677.36 399.02 654.23 420C607.36 462.51 606.96 462.06 560 504.48C529.47 532.06 534.91 545.86 499.25 560C464.91 573.62 459.63 560 420 560C350 560 350 560 280 560C210 560 210 560 140 560C70 560 48.12 581.88 0 560C-21.88 550.06 -21.04 513.19 0 496.36C48.96 457.19 74.11 478.41 140 448C156.83 440.23 165.45 433.12 165.45 420C165.45 408.51 151.32 410.85 140 398.79C85.62 340.85 88.81 337.54 34.05 280C18.81 263.99 4.83 271.56 0 251.69C-12.19 201.56 0 195.85 0 140C0 70 -31.82 38.18 0 0C26.52 -31.82 61.26 -7.92 116.67 0" stroke="rgba(139, 136, 128, 0.12)" stroke-width="2"></path><path d="M1120 134.08C1113.6 134.08 1106.88 137 1106.88 140C1106.88 143.01 1113.61 146.09 1120 146.09C1125.17 146.09 1130 143.01 1130 140C1130 137.01 1125.16 134.08 1120 134.08" stroke="rgba(139, 136, 128, 0.12)" stroke-width="2"></path><path d="M840 276.16C836.8 276.16 833.17 276.86 833.17 280C833.17 287.53 837.17 297.5 840 297.5C842.71 297.5 844.24 288.1 844.24 280C844.24 277.43 842.34 276.16 840 276.16" stroke="rgba(139, 136, 128, 0.12)" stroke-width="2"></path><path d="M0 25C36.01 25 62.67 80.83 121.51 140C132.67 151.22 127.15 156.79 140 165.79C206.39 212.3 204.64 231.6 280 251.03C344.64 267.7 353.33 228.98 420 238C460.39 243.47 463.32 251.81 494.12 280C533.32 315.89 530.16 321.14 560 366.15C576.56 391.14 586.92 395.64 586.92 420C586.92 434.63 573.37 431.97 560 444.14C496.51 501.97 498.21 506.21 433.21 560C428.21 564.14 426.61 560 420 560C350 560 350 560 280 560C210 560 210 560 140 560C98 560 56 569.91 56 560C56 548.91 104.09 547.04 140 518C190.64 477.04 229.09 465.92 229.09 420C229.09 379.8 181.98 385.54 140 345.76C108.11 315.54 113.16 310.31 81.35 280C43.16 243.61 24.15 253.93 0 212.36C-16.52 183.93 0 176.18 0 140C0 82.5 -24.75 25 0 25" stroke="rgba(139, 136, 128, 0.12)" stroke-width="2"></path><path d="M420 70.82C383.52 70.82 355.27 21.14 355.27 0C355.27 -14.27 387.63 0 420 0C471.89 0 523.79 -16.02 523.79 0C523.79 19.39 467.78 70.82 420 70.82" stroke="rgba(139, 136, 128, 0.12)" stroke-width="2"></path><path d="M663.79 140C678.84 80.87 660.24 38.47 700 23.33C748.34 4.93 769.96 48.25 840 72.92C909.96 97.56 912.67 93.26 980 121.94C991.42 126.8 986.51 134.12 997.5 140C1056.51 171.56 1060.35 196.81 1120 196.81C1168.27 196.81 1213.33 168.11 1213.33 140C1213.33 112.1 1162.42 117.91 1120 84.79C1072.76 47.91 1034 24.76 1034 0C1034 -17.63 1077 0 1120 0C1182.71 0 1192.22 -14 1245.42 0C1262.22 4.42 1253.15 18.25 1260 36.84C1278.93 88.25 1266.77 95.92 1296.98 140C1336.77 198.06 1348.49 241.11 1400 241.11C1451.51 241.11 1469.52 200.5 1503.02 140C1536.27 79.95 1515.8 66.96 1533.49 0C1534.29 -3.04 1539.86 -3.11 1540 0C1543.11 66.89 1540 70 1540 140C1540 210 1540 210 1540 280C1540 350 1540 350 1540 420C1540 490 1567.36 517.36 1540 560C1522.44 587.36 1487.93 575.63 1450.15 560C1417.93 546.67 1426.89 529.29 1400 502.07C1357.74 459.29 1355.2 461.77 1311.85 420C1285.2 394.32 1289.84 367.17 1260 367.17C1215.64 367.17 1177.01 378.24 1163.45 420C1145.7 474.66 1211.5 514.46 1197.37 560C1189.78 584.46 1158.68 560 1120 560C1085.82 560 1055.07 582.16 1051.63 560C1044.21 512.16 1116.55 475.6 1098.28 420C1080.74 366.63 1038.09 382.51 980 342.05C937.59 312.51 937.35 312.59 897.27 280C867.35 255.67 871.54 228.22 840 228.22C796.8 228.22 792.66 252.19 747.8 280C722.66 295.58 725.13 315 700 315C668.56 315 640.85 309.87 634.67 280C622.75 222.37 646.17 209.21 663.79 140" stroke="rgba(139, 136, 128, 0.12)" stroke-width="2"></path><path d="M770 560C770 523.4 805 448 840 448C875 448 910 523.4 910 560C910 579.4 875 560 840 560C805 560 770 579.4 770 560" stroke="rgba(139, 136, 128, 0.12)" stroke-width="2"></path><path d="M0 87.5C16.44 87.5 55.47 116.82 55.47 140C55.47 159.59 18.35 173.03 0 173.03C-9.39 173.03 0 156.51 0 140C0 113.75 -11.3 87.5 0 87.5" stroke="rgba(139, 136, 128, 0.12)" stroke-width="2"></path><path d="M420 29.65C404.73 29.65 392.9 8.85 392.9 0C392.9 -5.97 406.45 0 420 0C441.73 0 463.45 -6.71 463.45 0C463.45 8.12 440 29.65 420 29.65" stroke="rgba(139, 136, 128, 0.12)" stroke-width="2"></path><path d="M745.16 140C745.16 122.57 793.35 109.38 840 109.38C875.77 109.38 910 122.77 910 140C910 158.21 876.21 180.27 840 180.27C793.79 180.27 745.16 158.02 745.16 140" stroke="rgba(139, 136, 128, 0.12)" stroke-width="2"></path><path d="M1120 35.49C1100.36 35.49 1084 10.36 1084 0C1084 -7.38 1102 0 1120 0C1146.25 0 1172.5 -8.04 1172.5 0C1172.5 9.7 1144.61 35.49 1120 35.49" stroke="rgba(139, 136, 128, 0.12)" stroke-width="2"></path><path d="M128.65 280C128.65 269.67 130.71 257.89 140 257.89C158.49 257.89 184.21 270.98 184.21 280C184.21 288.4 160.27 292.73 140 292.73C132.49 292.73 128.65 287.09 128.65 280" stroke="rgba(139, 136, 128, 0.12)" stroke-width="2"></path><path d="M950.3 280C950.3 255.32 953.81 229.01 980 224C1038.66 212.78 1050.13 248.28 1120 247.54C1190.13 246.8 1196.87 210.92 1260 221.05C1297.98 227.15 1322.22 257.34 1322.22 280C1322.22 297.38 1291.05 290.38 1260 301.13C1189.94 325.38 1190.09 349.71 1120 350C1050.09 350.28 1047.83 330.25 980 302.27C962.98 295.25 950.3 294.45 950.3 280" stroke="rgba(139, 136, 128, 0.12)" stroke-width="2"></path><path d="M1466.67 280C1466.67 248.33 1518.31 210 1540 210C1554.98 210 1540 245 1540 280C1540 304.07 1552.99 328.13 1540 328.13C1516.33 328.13 1466.67 307.4 1466.67 280" stroke="rgba(139, 136, 128, 0.12)" stroke-width="2"></path><path d="M1376.67 420C1376.67 389.71 1384.57 353.68 1400 353.68C1417.23 353.68 1442 392.53 1442 420C1442 436.55 1419.51 441.72 1400 441.72C1386.85 441.72 1376.67 433.73 1376.67 420" stroke="rgba(139, 136, 128, 0.12)" stroke-width="2"></path><path d="M198.33 560C198.33 528.17 243.3 456.84 280 456.84C312.96 456.84 337.65 525.33 337.65 560C337.65 576.91 308.83 560 280 560C239.16 560 198.33 579.75 198.33 560" stroke="rgba(139, 136, 128, 0.12)" stroke-width="2"></path><path d="M809.77 560C809.77 544.2 824.88 511.64 840 511.64C855.12 511.64 870.23 544.2 870.23 560C870.23 568.38 855.12 560 840 560C824.88 560 809.77 568.38 809.77 560" stroke="rgba(139, 136, 128, 0.12)" stroke-width="2"></path><path d="M1092.33 560C1092.33 533.45 1105.38 487.88 1120 487.88C1134.88 487.88 1151.32 534.21 1151.32 560C1151.32 570.27 1135.66 560 1120 560C1106.16 560 1092.33 569.51 1092.33 560" stroke="rgba(139, 136, 128, 0.12)" stroke-width="2"></path><path d="M1502.39 560C1502.39 538.5 1529.91 495.38 1540 495.38C1548.72 495.38 1551.89 539.58 1540 560C1533.08 571.89 1502.39 570.81 1502.39 560" stroke="rgba(139, 136, 128, 0.12)" stroke-width="2"></path></g><defs><mask id="SvgjsMask1020"><rect width="1440" height="560" fill="#ffffff"></rect></mask></defs></svg>